HIERARCHY
ROOT Hips
{
	OFFSET 0.000000 0.000000 0.000000 
	CHANNELS 6 Xposition Yposition Zposition Yrotation Zrotation Xrotation 
	JOINT Lumbar
	{
		OFFSET 0.000000 0.000000 0.000000 
		CHANNELS 3 Zrotation Xrotation Yrotation
		JOINT Neck
		{
			OFFSET 0.000000 0.445665 0.000000 
			CHANNELS 3 Zrotation Xrotation Yrotation
			End Site
			{
				OFFSET 0.000000 0.227535 0.000000 
			}
		}
		JOINT RightShoulder
		{
			OFFSET 0.019635 0.377685 0.194865 
			CHANNELS 3 Zrotation Xrotation Yrotation
			JOINT RightElbow
			{
				OFFSET 0.000000 -0.243375 0.000000 
				CHANNELS 2 Zrotation Yrotation
				JOINT RightWrist
				{
					OFFSET 0.000000 -0.264825 0.000000 
					CHANNELS 2 Zrotation Xrotation
					End Site
					{
						OFFSET 0.006600 -0.176220 0.000990 
					}
				}
			}
		}
		JOINT LeftShoulder
		{
			OFFSET 0.019635 0.377685 -0.194865 
			CHANNELS 3 Zrotation Xrotation Yrotation
			JOINT LeftElbow
			{
				OFFSET 0.000000 -0.243375 0.000000 
				CHANNELS 2 Zrotation Yrotation
				JOINT LeftWrist
				{
					OFFSET 0.000000 -0.264825 0.000000 
					CHANNELS 2 Zrotation Xrotation
					End Site
					{
						OFFSET 0.006600 -0.176220 -0.000990 
					}
				}
			}
		}
	}
	JOINT RightHip
	{
		OFFSET 0.052140 -0.069960 0.075570 
		CHANNELS 3 Zrotation Xrotation Yrotation
		JOINT RightKnee
		{
			OFFSET 0.000000 -0.402270 0.000000 
			CHANNELS 1 Zrotation
			JOINT RightAnkle
			{
				OFFSET 0.000000 -0.404085 0.000000 
				CHANNELS 3 Zrotation Xrotation Yrotation
				End Site
				{
					OFFSET 0.204105 -0.089430 0.008415 
				}
			}
		}
	}
	JOINT LeftHip
	{
		OFFSET 0.052140 -0.069960 -0.075570 
		CHANNELS 3 Zrotation Xrotation Yrotation
		JOINT LeftKnee
		{
			OFFSET 0.000000 -0.402270 0.000000 
			CHANNELS 1 Zrotation
			JOINT LeftAnkle
			{
				OFFSET 0.000000 -0.404085 0.000000 
				CHANNELS 3 Zrotation Xrotation Yrotation
				End Site
				{
					OFFSET 0.204105 -0.089430 -0.008415 
				}
			}
		}
	}
}
MOTION
Frames: 20
Frame Time: 0.02
0 0.95578 0 203.45541 0 3.09774 9.67712 -2.17737 -4.1998 -33.87242 2.7913 4.42822 25.13664 -14.749 4.8471 10.27393 84.79696 1.90553 2.50019 26.4448 3.7322 -7.11455 7.45985 -76.39819 -5.12638 -0.97901 1.60562 2.33385 15.83606 -23.08414 13.45695 -11.30486 -13.34003 0.06874 -4.11071 -8.54191 -17.18319 10.01133 7.97518 11.88777
-0.00016 0.95579 -9e-05 203.54903 0 3.09471 9.64493 -2.19186 -4.20498 -33.8284 2.79872 4.43329 25.09388 -14.75225 4.83618 10.27397 84.87731 1.90427 2.49958 26.42171 3.72959 -7.17253 7.47008 -76.40028 -5.13514 -0.95918 1.558 2.3399 15.77665 -23.01385 13.4408 -11.302 -13.37202 0.07883 -4.10022 -8.62648 -17.19106 10.00825 7.96681 11.88402
-0.00033 0.9558 -0.00018 203.64253 0 3.0917 9.61269 -2.20638 -4.21031 -33.78466 2.80636 4.43843 25.05098 -14.75614 4.82693 10.27546 84.95686 1.90235 2.49834 26.39865 3.72666 -7.22899 7.48024 -76.40186 -5.14381 -0.9394 1.51062 2.3459 15.71698 -22.94386 13.42475 -11.29905 -13.4036 0.08895 -4.08974 -8.71095 -17.1989 10.00512 7.95847 11.88027
-0.00049 0.95581 -0.00027 203.73616 0 3.08862 9.58015 -2.22102 -4.21616 -33.7414 2.81491 4.44398 25.00733 -14.76218 4.823 10.28091 85.03456 1.89884 2.49518 26.37547 3.72243 -7.28058 7.49018 -76.40108 -5.15226 -0.91947 1.46357 2.35171 15.65569 -22.87406 13.40887 -11.29565 -13.43364 0.09921 -4.07917 -8.79565 -17.20664 10.00175 7.95026 11.87664
-0.00066 0.95581 -0.00035 203.82875 0 3.08575 9.54942 -2.23489 -4.21906 -33.69533 2.81858 4.44745 24.9679 -14.75627 4.78945 10.26306 85.12276 1.90512 2.50292 26.35292 3.72507 -7.35876 7.50127 -76.41235 -5.16195 -0.90017 1.41459 2.35848 15.60299 -22.80284 13.39203 -11.29457 -13.47161 0.10863 -4.06901 -8.87888 -17.21479 9.99966 7.94146 11.87253
-0.00081 0.95583 -0.00045 203.92366 0 3.08253 9.51475 -2.25047 -4.22834 -33.65541 2.83262 4.45525 24.91942 -14.77604 4.81955 10.2961 85.18817 1.88974 2.48711 26.32908 3.71318 -7.38011 7.50991 -76.39843 -5.16895 -0.87967 1.36985 2.36322 15.53215 -22.73497 13.37729 -11.28866 -13.49293 0.1199 -4.05804 -8.96531 -17.22215 9.99485 7.93385 11.86936
-0.0009 0.95587 -0.00061 204.02639 0 3.07758 9.46894 -2.27071 -4.25521 -33.63068 2.87658 4.47624 24.84468 -14.86675 5.02402 10.46465 85.19409 1.8188 2.40654 26.30053 3.65951 -7.24331 7.51178 -76.30962 -5.16897 -0.85403 1.335 2.36219 15.40746 -22.67268 13.36778 -11.26801 -13.46572 0.1361 -4.04406 -9.06219 -17.22689 9.98213 7.93004 11.86955
-0.00097 0.95592 -0.00079 204.1315 0 3.07245 9.41916 -2.29273 -4.28875 -33.61254 2.93087 4.50128 24.76069 -14.98371 5.29278 10.68723 85.17621 1.7245 2.30145 26.27087 3.59144 -7.04903 7.51125 -76.19631 -5.16624 -0.82741 1.30472 2.35909 15.26488 -22.61441 13.36051 -11.24271 -13.42217 0.15422 -4.02941 -9.16233 -17.23088 9.96669 7.92733 11.87058
-0.00105 0.95596 -0.00096 204.23449 0 3.06789 9.37127 -2.31399 -4.31906 -33.59242 2.97964 4.52381 24.68199 -15.08851 5.53392 10.8866 85.16719 1.63886 2.20801 26.24238 3.53092 -6.88192 7.51174 -76.09753 -5.16441 -0.8025 1.27351 2.35707 15.13299 -22.55662 13.3526 -11.22045 -13.38772 0.17158 -4.0155 -9.25978 -17.23553 9.9528 7.92383 11.87072
-0.00113 0.95601 -0.00113 204.34108 0 3.06117 9.32295 -2.33496 -4.34944 -33.5677 3.03177 4.54961 24.5998 -15.19338 5.77018 11.07394 85.16707 1.5641 2.11487 26.21098 3.46608 -6.71117 7.51224 -75.9843 -5.16387 -0.77259 1.23751 2.35462 14.99092 -22.48902 13.34308 -11.19435 -13.34615 0.18848 -3.99961 -9.36143 -17.23897 9.93776 7.92164 11.87294
-0.0012 0.95605 -0.0013 204.44171 0 3.05905 9.27469 -2.35707 -4.38222 -33.55452 3.0795 4.56903 24.52133 -15.30545 6.02948 11.30711 85.14195 1.45783 2.01222 26.18549 3.40695 -6.53337 7.51248 -75.89549 -5.16024 -0.75244 1.21251 2.3524 14.86504 -22.44289 13.33745 -11.17507 -13.3156 0.20681 -3.98785 -9.4562 -17.2446 9.92428 7.91689 11.87108
-0.0012 0.95605 -0.00149 204.51711 0 3.06845 9.22679 -2.381 -4.41221 -33.5688 3.11129 4.57452 24.46589 -15.42202 6.35688 11.59019 85.06682 1.30344 1.91909 26.17604 3.36596 -6.35832 7.5097 -75.87878 -5.14643 -0.76307 1.21745 2.35275 14.7945 -22.45433 13.34207 -11.17629 -13.31877 0.22844 -3.98639 -9.5221 -17.25779 9.91749 7.90552 11.85718
-0.00119 0.95604 -0.00167 204.58801 0 3.0827 9.17928 -2.4062 -4.44615 -33.59538 3.13854 4.57261 24.41194 -15.54701 6.70112 11.93234 84.96918 1.11534 1.81416 26.17292 3.33139 -6.17654 7.50725 -75.88769 -5.12999 -0.78292 1.23319 2.35315 14.73956 -22.48736 13.35051 -11.18446 -13.33372 0.25154 -3.98933 -9.5827 -17.27302 9.91208 7.89138 11.83921
-0.00118 0.95604 -0.00185 204.66624 0 3.09556 9.13207 -2.43136 -4.48297 -33.61771 3.16867 4.57101 24.35113 -15.67347 7.02489 12.28531 84.86775 0.91662 1.69195 26.16695 3.29472 -5.99259 7.5066 -75.8858 -5.11631 -0.79613 1.24356 2.35255 14.6735 -22.51101 13.35717 -11.18909 -13.34378 0.27402 -3.99113 -9.65167 -17.28639 9.90491 7.87803 11.8235
-0.00116 0.95604 -0.00205 204.72196 0 3.10508 9.08254 -2.45424 -4.499 -33.63307 3.19565 4.58236 24.31848 -15.77677 7.40653 12.469 84.80709 0.81267 1.65426 26.15981 3.25435 -5.82906 7.49778 -75.87968 -5.09609 -0.81946 1.25602 2.35591 14.62435 -22.53304 13.36411 -11.19508 -13.35139 0.29615 -3.98937 -9.69547 -17.30345 9.90238 7.86676 11.80624
-0.00117 0.95604 -0.00221 204.82382 0 3.1226 9.03822 -2.48225 -4.56079 -33.66773 3.22807 4.56503 24.22466 -15.93213 7.66891 13.03383 84.67854 0.52108 1.45086 26.1579 3.22308 -5.62168 7.50588 -75.88854 -5.08868 -0.82414 1.26665 2.35119 14.54325 -22.56342 13.37135 -11.20008 -13.36699 0.31958 -3.99594 -9.79053 -17.3136 9.89061 7.85041 11.79103
-0.00126 0.95609 -0.0023 205.05053 0 3.16174 9.00594 -2.52327 -4.7331 -33.73566 3.2756 4.46956 23.9892 -16.21036 7.6164 14.50209 84.17989 -0.4298 0.6802 26.15793 3.2185 -5.29975 7.56231 -75.93454 -5.11948 -0.77328 1.26978 2.3233 14.37668 -22.61287 13.37849 -11.1994 -13.40295 0.34441 -4.02569 -10.02689 -17.3022 9.85252 7.82158 11.78431
-0.00138 0.95616 -0.00235 205.32397 0 3.20862 8.97915 -2.56954 -4.95333 -33.82548 3.32877 4.34573 23.68833 -16.54382 7.44143 16.37354 83.64927 -1.54039 -0.23767 26.16509 3.22252 -4.93368 7.63543 -75.99443 -5.16291 -0.70368 1.27083 2.28757 14.1768 -22.66994 13.38579 -11.19773 -13.44643 0.37094 -4.06341 -10.31497 -17.28441 9.80524 7.78767 11.77958
-0.00149 0.95621 -0.00243 205.57904 0 3.25151 8.95156 -2.61398 -5.16227 -33.91675 3.38015 4.23518 23.39767 -16.86452 7.30762 18.15241 83.2564 -2.47975 -1.01165 26.17611 3.22043 -4.58443 7.69983 -76.04685 -5.19909 -0.64384 1.27242 2.25584 13.98726 -22.72241 13.39298 -11.1974 -13.48575 0.39776 -4.09671 -10.58076 -17.27052 9.76242 7.75536 11.77257
-0.0016 0.95627 -0.00248 205.82397 0 3.29662 8.91757 -2.65618 -5.33012 -33.9614 3.42866 4.12216 23.18405 -17.13446 7.22777 19.56372 82.34123 -3.83666 -2.10286 26.1572 3.22721 -4.24703 7.7691 -76.10528 -5.24141 -0.57907 1.27528 2.22176 13.8163 -22.77957 13.40043 -11.19365 -13.52852 0.4197 -4.1337 -10.84252 -17.25145 9.71822 7.72551 11.77069
